<svg xmlns="http://www.w3.org/2000/svg" viewBox="-26.0 -29.0 1054.9 1054.9"><g transform="translate(0,1008) scale(0.1,-0.1)"><path d="M4350 9853 c-85 -13 -189 -35 -230 -48 -41 -13 -104 -27 -140 -30
-235 -22 -395 -56 -449 -94 -15 -11 -50 -28 -78 -39 -28 -10 -72 -36 -98 -56
-32 -24 -78 -45 -134 -62 -126 -37 -244 -82 -351 -135 -52 -25 -111 -51 -130
-58 -52 -16 -85 -41 -123 -92 -28 -36 -56 -55 -152 -103 -88 -44 -129 -70
-159 -104 -131 -146 -221 -223 -312 -268 -118 -57 -134 -70 -201 -166 -31 -44
-102 -126 -158 -182 -106 -106 -189 -210 -248 -311 -19 -33 -65 -94 -101 -135
-37 -43 -86 -114 -112 -165 -48 -91 -57 -106 -151 -231 -51 -67 -113 -213
-113 -263 0 -11 -18 -41 -40 -66 -53 -61 -57 -69 -75 -161 -19 -89 -53 -163
-101 -216 -74 -82 -98 -175 -112 -424 -9 -162 -11 -167 -75 -248 -23 -28 -31
-51 -38 -112 -6 -42 -24 -120 -42 -173 -31 -96 -31 -96 -30 -816 2 -829 -1
-802 89 -973 29 -56 61 -130 69 -165 79 -310 101 -353 211 -428 41 -27 74 -54
74 -59 0 -5 23 -32 52 -60 45 -44 53 -58 58 -98 4 -38 11 -50 36 -67 29 -18
84 -106 84 -133 0 -26 26 -63 60 -86 40 -27 70 -78 70 -123 0 -94 42 -113 370
-169 52 -9 127 -29 165 -44 243 -98 581 -102 813 -9 41 16 124 40 185 54 61
14 136 37 166 51 31 14 80 32 110 40 59 16 99 37 171 92 69 52 210 115 371
166 80 25 186 64 237 86 61 26 124 45 189 55 54 8 132 26 173 40 140 46 162
48 515 50 383 3 406 1 635 -60 117 -30 195 -45 270 -50 125 -8 358 -80 469
-144 44 -26 110 -51 199 -75 73 -20 158 -46 190 -57 31 -12 95 -35 140 -50 46
-16 97 -38 112 -49 47 -34 94 -49 197 -65 54 -8 116 -20 138 -26 63 -17 438
-204 460 -228 57 -64 180 -111 370 -142 210 -34 281 -93 211 -176 -80 -95
-284 -53 -435 91 -88 83 -158 117 -298 141 -130 23 -156 32 -282 96 -64 33
-149 68 -190 80 -41 11 -102 35 -135 54 -119 66 -188 85 -381 106 -217 24
-267 37 -331 88 -68 54 -104 66 -224 80 -116 13 -255 40 -400 79 -205 54 -185
52 -650 46 -361 -5 -454 -9 -545 -24 -60 -11 -160 -26 -221 -34 -62 -9 -134
-24 -160 -34 -27 -11 -73 -25 -101 -32 -29 -6 -93 -36 -141 -66 -72 -43 -109
-58 -195 -78 -141 -34 -174 -52 -224 -124 -50 -70 -107 -123 -162 -152 -23
-11 -68 -38 -102 -60 -34 -22 -85 -48 -115 -59 -29 -11 -94 -41 -143 -65 -144
-73 -285 -105 -466 -108 -175 -3 -175 -3 -368 93 -145 72 -206 93 -297 104
-30 4 -77 13 -105 21 -75 22 -83 9 -56 -97 61 -251 186 -392 471 -534 30 -15
78 -49 107 -76 106 -100 336 -189 503 -196 200 -8 329 35 437 145 45 46 68 62
96 66 20 3 52 8 71 11 53 8 124 62 189 143 32 39 77 85 100 101 23 16 80 66
127 110 222 213 310 261 499 271 147 9 166 13 250 65 112 68 186 80 421 65
231 -13 235 -14 453 -4 183 7 214 2 335 -58 78 -39 90 -42 200 -48 226 -14
392 -80 392 -157 0 -52 -109 -65 -198 -23 -34 16 -98 36 -142 44 -44 9 -106
27 -139 41 -33 14 -69 25 -79 25 -10 0 -45 9 -76 20 -74 25 -754 51 -844 31
-29 -6 -72 -11 -95 -11 -23 0 -74 -9 -112 -20 -38 -11 -82 -20 -96 -20 -14 0
-67 -20 -118 -45 -51 -25 -114 -50 -140 -56 -110 -24 -388 -177 -422 -232 -27
-45 -27 -223 0 -283 41 -90 265 -219 406 -233 44 -5 93 -14 110 -21 73 -28
139 16 87 59 -32 26 -32 26 -24 141 13 192 55 238 233 262 175 23 630 -20 809
-76 134 -43 272 -70 429 -86 105 -10 131 -19 181 -65 38 -35 219 -131 301
-161 424 -152 466 -333 128 -549 -145 -94 -175 -105 -304 -115 -55 -4 -127
-15 -160 -23 -33 -9 -131 -21 -217 -27 -87 -6 -195 -17 -240 -25 -189 -32
-675 -41 -808 -16 -114 22 -293 40 -520 51 -293 14 -392 32 -515 94 -278 140
-651 164 -572 37 9 -14 25 -42 36 -62 22 -39 61 -59 116 -59 75 0 133 -29 231
-114 133 -118 318 -196 461 -196 60 0 101 -13 172 -56 30 -18 73 -35 95 -39
23 -3 70 -12 106 -20 101 -22 318 -64 453 -87 221 -39 1051 -15 1297 37 63 13
187 38 275 56 237 47 340 75 398 108 29 17 94 46 144 65 82 31 186 92 298 175
41 29 72 40 180 61 89 18 160 57 241 132 82 76 107 90 184 108 88 20 116 37
151 93 49 79 69 97 134 127 33 15 82 46 108 68 26 22 72 57 102 77 59 40 118
104 183 201 26 39 66 80 111 113 111 83 121 99 175 291 26 90 44 111 147 165
183 96 337 316 479 682 17 45 45 98 62 120 50 62 99 175 108 248 5 39 19 88
35 118 135 257 159 326 176 501 6 60 21 144 35 186 13 42 33 120 44 174 11 53
27 122 36 152 19 65 28 686 13 889 -5 66 -13 194 -19 285 -10 161 -25 266 -57
400 -17 72 -38 234 -53 415 -15 182 -38 244 -122 327 -81 79 -87 91 -138 294
-24 97 -51 175 -69 208 -17 29 -44 93 -60 144 -17 50 -50 124 -74 164 -78 131
-101 172 -139 248 -20 41 -68 113 -108 160 -39 47 -82 105 -97 130 -38 65
-139 186 -181 218 -44 34 -171 158 -283 277 -97 104 -169 166 -254 220 -85 54
-200 156 -314 279 -25 26 -65 59 -90 74 -26 14 -78 52 -117 82 -39 31 -97 67
-130 80 -109 43 -229 107 -279 150 -64 53 -79 61 -202 103 -56 20 -121 46
-145 58 -57 29 -274 106 -363 129 -300 76 -522 116 -715 131 -80 5 -172 14
-205 20 -138 21 -896 9 -1065 -18z m947 -404 c56 -6 130 -17 165 -25 35 -8
106 -23 158 -35 52 -11 120 -29 150 -39 30 -11 126 -33 212 -49 211 -40 313
-72 435 -137 56 -30 139 -67 185 -84 46 -17 108 -45 138 -64 30 -18 73 -43 96
-54 38 -19 104 -83 104 -100 0 -40 -50 -61 -250 -102 -157 -32 -295 -78 -444
-149 -45 -21 -106 -49 -136 -61 -30 -13 -84 -44 -120 -70 -36 -26 -92 -65
-126 -88 -53 -35 -66 -51 -99 -117 -25 -51 -51 -88 -81 -112 -27 -23 -58 -64
-80 -107 -20 -39 -60 -96 -89 -126 -131 -139 -160 -430 -135 -1340 11 -378 21
-450 86 -617 25 -65 65 -173 89 -240 24 -67 64 -157 90 -200 25 -43 53 -103
61 -133 9 -30 27 -80 40 -110 13 -30 37 -92 54 -137 20 -53 49 -104 82 -145
30 -37 78 -121 118 -203 37 -77 83 -160 104 -184 20 -24 67 -89 103 -145 37
-56 99 -135 138 -176 47 -51 74 -89 83 -117 22 -75 104 -183 181 -240 59 -45
74 -62 102 -120 26 -56 59 -95 179 -218 272 -278 316 -431 107 -369 -51 14
-119 33 -152 41 -33 8 -91 32 -130 53 -38 21 -90 44 -115 50 -24 7 -87 33
-140 59 -160 80 -393 169 -536 205 -55 14 -125 37 -156 51 -30 14 -84 28 -119
31 -75 7 -230 44 -326 78 -232 82 -413 118 -569 114 -54 -1 -148 -1 -209 1
-166 3 -618 -29 -668 -48 -15 -6 -37 -27 -48 -46 -27 -45 -59 -61 -143 -75
-255 -41 -339 -75 -506 -209 -135 -108 -319 -215 -433 -250 -106 -33 -137 -49
-197 -105 -179 -165 -833 -220 -1153 -97 -16 6 -48 11 -73 11 -156 0 -326 141
-243 202 39 28 38 246 0 388 -20 73 -51 196 -92 370 -11 47 -32 113 -46 148
-18 46 -26 86 -28 151 -2 48 -8 106 -13 127 -6 21 -13 95 -16 164 -3 69 -13
163 -22 210 -52 284 -27 702 67 1096 16 67 29 136 29 155 0 19 10 54 21 79 40
87 80 216 100 327 31 172 64 254 170 416 22 34 51 98 64 142 26 84 129 274
196 361 21 28 64 97 95 155 78 144 108 183 188 245 82 64 108 99 136 186 25
79 48 101 122 123 81 23 115 50 172 135 39 57 73 92 144 145 51 39 121 99 155
132 74 73 136 113 230 149 52 20 83 40 122 79 61 62 90 79 165 94 80 17 153
62 200 125 47 62 128 109 290 169 89 33 135 42 395 82 149 22 234 42 295 70
216 95 299 121 410 128 146 7 580 5 667 -4z m2888 -1601 c61 -40 143 -140 191
-232 61 -117 91 -154 145 -181 38 -20 54 -35 69 -68 41 -88 98 -244 109 -295
13 -64 16 -70 99 -197 108 -164 179 -389 252 -795 11 -63 43 -171 78 -270 87
-239 87 -240 86 -645 -2 -465 -28 -732 -79 -805 -57 -80 -65 -102 -65 -171 0
-44 -7 -81 -19 -110 -11 -25 -29 -94 -39 -154 -14 -77 -34 -143 -67 -220 -26
-60 -58 -153 -72 -205 -17 -68 -37 -114 -67 -160 -24 -36 -53 -91 -64 -123
-12 -31 -35 -84 -52 -117 -17 -33 -37 -91 -45 -130 -23 -108 -35 -128 -142
-236 -135 -136 -151 -138 -274 -38 -97 79 -137 127 -174 208 -26 57 -46 83
-99 130 -76 67 -109 116 -130 200 -18 68 -30 83 -108 138 -71 50 -77 60 -117
179 -36 109 -58 135 -141 172 -74 33 -86 48 -130 170 -44 123 -56 143 -131
222 -31 34 -71 90 -89 125 -18 36 -42 78 -53 94 -11 15 -47 83 -79 149 -50
101 -71 132 -126 187 -58 56 -73 78 -106 160 -22 52 -52 115 -66 140 -23 40
-41 81 -93 215 -6 17 -41 62 -78 101 -54 57 -71 83 -84 129 -9 31 -42 109 -72
173 -30 64 -70 160 -88 212 -18 52 -49 133 -70 180 -20 47 -45 108 -54 135
-10 28 -34 82 -54 121 -31 62 -38 88 -52 209 -9 76 -18 141 -20 145 -19 31
-33 289 -24 430 20 308 55 396 233 587 148 159 280 160 449 4 34 -31 82 -72
107 -91 25 -19 86 -72 135 -120 124 -118 184 -148 435 -220 199 -57 244 -76
313 -132 158 -127 430 -119 492 15 32 68 31 79 -9 146 -91 150 -133 511 -73
628 27 52 47 54 112 11z m-1885 -5718 c36 -6 88 -22 115 -35 55 -27 122 -44
173 -45 44 0 249 -66 293 -95 78 -51 166 -88 274 -115 194 -49 243 -91 216
-182 -55 -181 -285 -165 -431 31 -49 65 -79 86 -180 124 -36 13 -96 40 -135
59 -38 20 -106 46 -150 58 -44 12 -105 36 -135 53 -30 17 -81 43 -112 59 -69
35 -104 74 -86 95 13 16 30 15 158 -7z"/></g></svg>